<mxfile host="app.diagrams.net" agent="Mozilla/5.0 (Windows NT 10.0; Win64; x64) AppleWebKit/537.36 (KHTML, like Gecko) Chrome/128.0.0.0 Safari/537.36 OPR/114.0.0.0" version="25.0.3">
  <diagram name="1 oldal" id="-wHXKrYMtI9YIkZpOtqI">
    <mxGraphModel dx="1172" dy="1838" grid="1" gridSize="10" guides="1" tooltips="1" connect="1" arrows="1" fold="1" page="1" pageScale="1" pageWidth="827" pageHeight="1169" math="0" shadow="0">
      <root>
        <mxCell id="0" />
        <mxCell id="1" parent="0" />
        <mxCell id="FoCJxKPPaLEnD5Z_WkkF-108" value="" style="group" vertex="1" connectable="0" parent="1">
          <mxGeometry x="300" y="-160" width="160" height="820" as="geometry" />
        </mxCell>
        <mxCell id="FoCJxKPPaLEnD5Z_WkkF-109" value="" style="rounded=0;whiteSpace=wrap;html=1;" vertex="1" parent="FoCJxKPPaLEnD5Z_WkkF-108">
          <mxGeometry y="30" width="160" height="790" as="geometry" />
        </mxCell>
        <mxCell id="FoCJxKPPaLEnD5Z_WkkF-110" value="" style="rounded=0;whiteSpace=wrap;html=1;" vertex="1" parent="FoCJxKPPaLEnD5Z_WkkF-108">
          <mxGeometry width="30" height="30" as="geometry" />
        </mxCell>
        <mxCell id="FoCJxKPPaLEnD5Z_WkkF-111" value="" style="rounded=0;whiteSpace=wrap;html=1;" vertex="1" parent="FoCJxKPPaLEnD5Z_WkkF-108">
          <mxGeometry x="30" width="130" height="30" as="geometry" />
        </mxCell>
        <mxCell id="FoCJxKPPaLEnD5Z_WkkF-1" value="" style="group" vertex="1" connectable="0" parent="1">
          <mxGeometry x="10" y="-120" width="120" height="80" as="geometry" />
        </mxCell>
        <mxCell id="FoCJxKPPaLEnD5Z_WkkF-2" value="Bejelentkezett felhasználó" style="ellipse;whiteSpace=wrap;html=1;" vertex="1" parent="FoCJxKPPaLEnD5Z_WkkF-1">
          <mxGeometry width="120" height="80" as="geometry" />
        </mxCell>
        <mxCell id="FoCJxKPPaLEnD5Z_WkkF-3" value="" style="endArrow=none;html=1;rounded=0;entryX=0.445;entryY=0.004;entryDx=0;entryDy=0;exitX=0.01;exitY=0.606;exitDx=0;exitDy=0;exitPerimeter=0;entryPerimeter=0;" edge="1" parent="FoCJxKPPaLEnD5Z_WkkF-1" source="FoCJxKPPaLEnD5Z_WkkF-2" target="FoCJxKPPaLEnD5Z_WkkF-2">
          <mxGeometry width="50" height="50" relative="1" as="geometry">
            <mxPoint x="150" y="200" as="sourcePoint" />
            <mxPoint x="200" y="150" as="targetPoint" />
          </mxGeometry>
        </mxCell>
        <mxCell id="FoCJxKPPaLEnD5Z_WkkF-4" value="" style="group" vertex="1" connectable="0" parent="1">
          <mxGeometry x="10" y="-30" width="120" height="80" as="geometry" />
        </mxCell>
        <mxCell id="FoCJxKPPaLEnD5Z_WkkF-5" value="Látogató" style="ellipse;whiteSpace=wrap;html=1;" vertex="1" parent="FoCJxKPPaLEnD5Z_WkkF-4">
          <mxGeometry width="120" height="80" as="geometry" />
        </mxCell>
        <mxCell id="FoCJxKPPaLEnD5Z_WkkF-6" value="" style="endArrow=none;html=1;rounded=0;entryX=0.445;entryY=0.004;entryDx=0;entryDy=0;exitX=0.01;exitY=0.606;exitDx=0;exitDy=0;exitPerimeter=0;entryPerimeter=0;" edge="1" parent="FoCJxKPPaLEnD5Z_WkkF-4" source="FoCJxKPPaLEnD5Z_WkkF-5" target="FoCJxKPPaLEnD5Z_WkkF-5">
          <mxGeometry width="50" height="50" relative="1" as="geometry">
            <mxPoint x="150" y="200" as="sourcePoint" />
            <mxPoint x="200" y="150" as="targetPoint" />
          </mxGeometry>
        </mxCell>
        <mxCell id="FoCJxKPPaLEnD5Z_WkkF-7" value="" style="group" vertex="1" connectable="0" parent="1">
          <mxGeometry x="320" y="-100" width="120" height="110" as="geometry" />
        </mxCell>
        <mxCell id="FoCJxKPPaLEnD5Z_WkkF-8" value="" style="rounded=0;whiteSpace=wrap;html=1;" vertex="1" parent="FoCJxKPPaLEnD5Z_WkkF-7">
          <mxGeometry y="30" width="120" height="80" as="geometry" />
        </mxCell>
        <mxCell id="FoCJxKPPaLEnD5Z_WkkF-9" value="" style="rounded=0;whiteSpace=wrap;html=1;" vertex="1" parent="FoCJxKPPaLEnD5Z_WkkF-7">
          <mxGeometry width="30" height="30" as="geometry" />
        </mxCell>
        <mxCell id="FoCJxKPPaLEnD5Z_WkkF-10" value="" style="rounded=0;whiteSpace=wrap;html=1;" vertex="1" parent="FoCJxKPPaLEnD5Z_WkkF-7">
          <mxGeometry x="30" width="90" height="30" as="geometry" />
        </mxCell>
        <mxCell id="FoCJxKPPaLEnD5Z_WkkF-11" value="4.1" style="text;html=1;align=center;verticalAlign=middle;whiteSpace=wrap;rounded=0;" vertex="1" parent="FoCJxKPPaLEnD5Z_WkkF-7">
          <mxGeometry width="30" height="30" as="geometry" />
        </mxCell>
        <mxCell id="FoCJxKPPaLEnD5Z_WkkF-12" value="Megfigyelések megtekintése" style="text;html=1;align=center;verticalAlign=middle;whiteSpace=wrap;rounded=0;" vertex="1" parent="FoCJxKPPaLEnD5Z_WkkF-7">
          <mxGeometry x="30" y="55" width="60" height="30" as="geometry" />
        </mxCell>
        <mxCell id="FoCJxKPPaLEnD5Z_WkkF-72" value="" style="endArrow=none;html=1;rounded=0;" edge="1" parent="FoCJxKPPaLEnD5Z_WkkF-7">
          <mxGeometry width="50" height="50" relative="1" as="geometry">
            <mxPoint x="95" y="110" as="sourcePoint" />
            <mxPoint x="120" y="85" as="targetPoint" />
          </mxGeometry>
        </mxCell>
        <mxCell id="FoCJxKPPaLEnD5Z_WkkF-73" value="*" style="text;html=1;align=center;verticalAlign=middle;whiteSpace=wrap;rounded=0;fontSize=16;" vertex="1" parent="FoCJxKPPaLEnD5Z_WkkF-7">
          <mxGeometry x="110" y="100" width="10" height="10" as="geometry" />
        </mxCell>
        <mxCell id="FoCJxKPPaLEnD5Z_WkkF-13" value="" style="group" vertex="1" connectable="0" parent="1">
          <mxGeometry x="320" y="120" width="120" height="110" as="geometry" />
        </mxCell>
        <mxCell id="FoCJxKPPaLEnD5Z_WkkF-14" value="" style="rounded=0;whiteSpace=wrap;html=1;" vertex="1" parent="FoCJxKPPaLEnD5Z_WkkF-13">
          <mxGeometry y="30" width="120" height="80" as="geometry" />
        </mxCell>
        <mxCell id="FoCJxKPPaLEnD5Z_WkkF-15" value="" style="rounded=0;whiteSpace=wrap;html=1;" vertex="1" parent="FoCJxKPPaLEnD5Z_WkkF-13">
          <mxGeometry width="30" height="30" as="geometry" />
        </mxCell>
        <mxCell id="FoCJxKPPaLEnD5Z_WkkF-16" value="" style="rounded=0;whiteSpace=wrap;html=1;" vertex="1" parent="FoCJxKPPaLEnD5Z_WkkF-13">
          <mxGeometry x="30" width="90" height="30" as="geometry" />
        </mxCell>
        <mxCell id="FoCJxKPPaLEnD5Z_WkkF-17" value="4.2" style="text;html=1;align=center;verticalAlign=middle;whiteSpace=wrap;rounded=0;" vertex="1" parent="FoCJxKPPaLEnD5Z_WkkF-13">
          <mxGeometry width="30" height="30" as="geometry" />
        </mxCell>
        <mxCell id="FoCJxKPPaLEnD5Z_WkkF-18" value="Megfigyelés létrehozása" style="text;html=1;align=center;verticalAlign=middle;whiteSpace=wrap;rounded=0;" vertex="1" parent="FoCJxKPPaLEnD5Z_WkkF-13">
          <mxGeometry x="30" y="55" width="60" height="30" as="geometry" />
        </mxCell>
        <mxCell id="FoCJxKPPaLEnD5Z_WkkF-70" value="" style="endArrow=none;html=1;rounded=0;" edge="1" parent="FoCJxKPPaLEnD5Z_WkkF-13">
          <mxGeometry width="50" height="50" relative="1" as="geometry">
            <mxPoint x="95" y="110" as="sourcePoint" />
            <mxPoint x="120" y="85" as="targetPoint" />
          </mxGeometry>
        </mxCell>
        <mxCell id="FoCJxKPPaLEnD5Z_WkkF-71" value="*" style="text;html=1;align=center;verticalAlign=middle;whiteSpace=wrap;rounded=0;fontSize=16;" vertex="1" parent="FoCJxKPPaLEnD5Z_WkkF-13">
          <mxGeometry x="110" y="100" width="10" height="10" as="geometry" />
        </mxCell>
        <mxCell id="FoCJxKPPaLEnD5Z_WkkF-19" value="" style="group" vertex="1" connectable="0" parent="1">
          <mxGeometry x="320" y="330" width="120" height="110" as="geometry" />
        </mxCell>
        <mxCell id="FoCJxKPPaLEnD5Z_WkkF-20" value="" style="rounded=0;whiteSpace=wrap;html=1;" vertex="1" parent="FoCJxKPPaLEnD5Z_WkkF-19">
          <mxGeometry y="30" width="120" height="80" as="geometry" />
        </mxCell>
        <mxCell id="FoCJxKPPaLEnD5Z_WkkF-21" value="" style="rounded=0;whiteSpace=wrap;html=1;" vertex="1" parent="FoCJxKPPaLEnD5Z_WkkF-19">
          <mxGeometry width="30" height="30" as="geometry" />
        </mxCell>
        <mxCell id="FoCJxKPPaLEnD5Z_WkkF-22" value="" style="rounded=0;whiteSpace=wrap;html=1;" vertex="1" parent="FoCJxKPPaLEnD5Z_WkkF-19">
          <mxGeometry x="30" width="90" height="30" as="geometry" />
        </mxCell>
        <mxCell id="FoCJxKPPaLEnD5Z_WkkF-23" value="4.3" style="text;html=1;align=center;verticalAlign=middle;whiteSpace=wrap;rounded=0;" vertex="1" parent="FoCJxKPPaLEnD5Z_WkkF-19">
          <mxGeometry width="30" height="30" as="geometry" />
        </mxCell>
        <mxCell id="FoCJxKPPaLEnD5Z_WkkF-24" value="Megfigyelés módosítása" style="text;html=1;align=center;verticalAlign=middle;whiteSpace=wrap;rounded=0;" vertex="1" parent="FoCJxKPPaLEnD5Z_WkkF-19">
          <mxGeometry x="30" y="55" width="60" height="30" as="geometry" />
        </mxCell>
        <mxCell id="FoCJxKPPaLEnD5Z_WkkF-68" value="" style="endArrow=none;html=1;rounded=0;" edge="1" parent="FoCJxKPPaLEnD5Z_WkkF-19">
          <mxGeometry width="50" height="50" relative="1" as="geometry">
            <mxPoint x="95" y="110" as="sourcePoint" />
            <mxPoint x="120" y="85" as="targetPoint" />
          </mxGeometry>
        </mxCell>
        <mxCell id="FoCJxKPPaLEnD5Z_WkkF-69" value="*" style="text;html=1;align=center;verticalAlign=middle;whiteSpace=wrap;rounded=0;fontSize=16;" vertex="1" parent="FoCJxKPPaLEnD5Z_WkkF-19">
          <mxGeometry x="110" y="100" width="10" height="10" as="geometry" />
        </mxCell>
        <mxCell id="FoCJxKPPaLEnD5Z_WkkF-25" value="" style="group" vertex="1" connectable="0" parent="1">
          <mxGeometry x="320" y="540" width="120" height="110" as="geometry" />
        </mxCell>
        <mxCell id="FoCJxKPPaLEnD5Z_WkkF-26" value="" style="rounded=0;whiteSpace=wrap;html=1;" vertex="1" parent="FoCJxKPPaLEnD5Z_WkkF-25">
          <mxGeometry y="30" width="120" height="80" as="geometry" />
        </mxCell>
        <mxCell id="FoCJxKPPaLEnD5Z_WkkF-27" value="" style="rounded=0;whiteSpace=wrap;html=1;" vertex="1" parent="FoCJxKPPaLEnD5Z_WkkF-25">
          <mxGeometry width="30" height="30" as="geometry" />
        </mxCell>
        <mxCell id="FoCJxKPPaLEnD5Z_WkkF-28" value="" style="rounded=0;whiteSpace=wrap;html=1;" vertex="1" parent="FoCJxKPPaLEnD5Z_WkkF-25">
          <mxGeometry x="30" width="90" height="30" as="geometry" />
        </mxCell>
        <mxCell id="FoCJxKPPaLEnD5Z_WkkF-29" value="4.4" style="text;html=1;align=center;verticalAlign=middle;whiteSpace=wrap;rounded=0;" vertex="1" parent="FoCJxKPPaLEnD5Z_WkkF-25">
          <mxGeometry width="30" height="30" as="geometry" />
        </mxCell>
        <mxCell id="FoCJxKPPaLEnD5Z_WkkF-30" value="Megfigyelés törlése" style="text;html=1;align=center;verticalAlign=middle;whiteSpace=wrap;rounded=0;" vertex="1" parent="FoCJxKPPaLEnD5Z_WkkF-25">
          <mxGeometry x="30" y="55" width="60" height="30" as="geometry" />
        </mxCell>
        <mxCell id="FoCJxKPPaLEnD5Z_WkkF-66" value="" style="endArrow=none;html=1;rounded=0;" edge="1" parent="FoCJxKPPaLEnD5Z_WkkF-25">
          <mxGeometry width="50" height="50" relative="1" as="geometry">
            <mxPoint x="94" y="110" as="sourcePoint" />
            <mxPoint x="119" y="85" as="targetPoint" />
          </mxGeometry>
        </mxCell>
        <mxCell id="FoCJxKPPaLEnD5Z_WkkF-67" value="*" style="text;html=1;align=center;verticalAlign=middle;whiteSpace=wrap;rounded=0;fontSize=16;" vertex="1" parent="FoCJxKPPaLEnD5Z_WkkF-25">
          <mxGeometry x="109" y="100" width="10" height="10" as="geometry" />
        </mxCell>
        <mxCell id="FoCJxKPPaLEnD5Z_WkkF-31" value="" style="group" vertex="1" connectable="0" parent="1">
          <mxGeometry x="10" y="90" width="120" height="80" as="geometry" />
        </mxCell>
        <mxCell id="FoCJxKPPaLEnD5Z_WkkF-32" value="Bejelentkezett felhasználó" style="ellipse;whiteSpace=wrap;html=1;" vertex="1" parent="FoCJxKPPaLEnD5Z_WkkF-31">
          <mxGeometry width="120" height="80" as="geometry" />
        </mxCell>
        <mxCell id="FoCJxKPPaLEnD5Z_WkkF-33" value="" style="endArrow=none;html=1;rounded=0;entryX=0.445;entryY=0.004;entryDx=0;entryDy=0;exitX=0.01;exitY=0.606;exitDx=0;exitDy=0;exitPerimeter=0;entryPerimeter=0;" edge="1" parent="FoCJxKPPaLEnD5Z_WkkF-31" source="FoCJxKPPaLEnD5Z_WkkF-32" target="FoCJxKPPaLEnD5Z_WkkF-32">
          <mxGeometry width="50" height="50" relative="1" as="geometry">
            <mxPoint x="150" y="200" as="sourcePoint" />
            <mxPoint x="200" y="150" as="targetPoint" />
          </mxGeometry>
        </mxCell>
        <mxCell id="FoCJxKPPaLEnD5Z_WkkF-34" value="" style="group" vertex="1" connectable="0" parent="1">
          <mxGeometry x="10" y="180" width="120" height="80" as="geometry" />
        </mxCell>
        <mxCell id="FoCJxKPPaLEnD5Z_WkkF-35" value="Látogató" style="ellipse;whiteSpace=wrap;html=1;" vertex="1" parent="FoCJxKPPaLEnD5Z_WkkF-34">
          <mxGeometry width="120" height="80" as="geometry" />
        </mxCell>
        <mxCell id="FoCJxKPPaLEnD5Z_WkkF-36" value="" style="endArrow=none;html=1;rounded=0;entryX=0.445;entryY=0.004;entryDx=0;entryDy=0;exitX=0.01;exitY=0.606;exitDx=0;exitDy=0;exitPerimeter=0;entryPerimeter=0;" edge="1" parent="FoCJxKPPaLEnD5Z_WkkF-34" source="FoCJxKPPaLEnD5Z_WkkF-35" target="FoCJxKPPaLEnD5Z_WkkF-35">
          <mxGeometry width="50" height="50" relative="1" as="geometry">
            <mxPoint x="150" y="200" as="sourcePoint" />
            <mxPoint x="200" y="150" as="targetPoint" />
          </mxGeometry>
        </mxCell>
        <mxCell id="FoCJxKPPaLEnD5Z_WkkF-37" value="" style="group" vertex="1" connectable="0" parent="1">
          <mxGeometry x="10" y="300" width="120" height="80" as="geometry" />
        </mxCell>
        <mxCell id="FoCJxKPPaLEnD5Z_WkkF-38" value="Bejelentkezett felhasználó" style="ellipse;whiteSpace=wrap;html=1;" vertex="1" parent="FoCJxKPPaLEnD5Z_WkkF-37">
          <mxGeometry width="120" height="80" as="geometry" />
        </mxCell>
        <mxCell id="FoCJxKPPaLEnD5Z_WkkF-39" value="" style="endArrow=none;html=1;rounded=0;entryX=0.445;entryY=0.004;entryDx=0;entryDy=0;exitX=0.01;exitY=0.606;exitDx=0;exitDy=0;exitPerimeter=0;entryPerimeter=0;" edge="1" parent="FoCJxKPPaLEnD5Z_WkkF-37" source="FoCJxKPPaLEnD5Z_WkkF-38" target="FoCJxKPPaLEnD5Z_WkkF-38">
          <mxGeometry width="50" height="50" relative="1" as="geometry">
            <mxPoint x="150" y="200" as="sourcePoint" />
            <mxPoint x="200" y="150" as="targetPoint" />
          </mxGeometry>
        </mxCell>
        <mxCell id="FoCJxKPPaLEnD5Z_WkkF-40" value="" style="group" vertex="1" connectable="0" parent="1">
          <mxGeometry x="10" y="390" width="120" height="80" as="geometry" />
        </mxCell>
        <mxCell id="FoCJxKPPaLEnD5Z_WkkF-41" value="Látogató" style="ellipse;whiteSpace=wrap;html=1;" vertex="1" parent="FoCJxKPPaLEnD5Z_WkkF-40">
          <mxGeometry width="120" height="80" as="geometry" />
        </mxCell>
        <mxCell id="FoCJxKPPaLEnD5Z_WkkF-42" value="" style="endArrow=none;html=1;rounded=0;entryX=0.445;entryY=0.004;entryDx=0;entryDy=0;exitX=0.01;exitY=0.606;exitDx=0;exitDy=0;exitPerimeter=0;entryPerimeter=0;" edge="1" parent="FoCJxKPPaLEnD5Z_WkkF-40" source="FoCJxKPPaLEnD5Z_WkkF-41" target="FoCJxKPPaLEnD5Z_WkkF-41">
          <mxGeometry width="50" height="50" relative="1" as="geometry">
            <mxPoint x="150" y="200" as="sourcePoint" />
            <mxPoint x="200" y="150" as="targetPoint" />
          </mxGeometry>
        </mxCell>
        <mxCell id="FoCJxKPPaLEnD5Z_WkkF-43" value="" style="group" vertex="1" connectable="0" parent="1">
          <mxGeometry x="10" y="520" width="120" height="80" as="geometry" />
        </mxCell>
        <mxCell id="FoCJxKPPaLEnD5Z_WkkF-44" value="Bejelentkezett felhasználó" style="ellipse;whiteSpace=wrap;html=1;" vertex="1" parent="FoCJxKPPaLEnD5Z_WkkF-43">
          <mxGeometry width="120" height="80" as="geometry" />
        </mxCell>
        <mxCell id="FoCJxKPPaLEnD5Z_WkkF-45" value="" style="endArrow=none;html=1;rounded=0;entryX=0.445;entryY=0.004;entryDx=0;entryDy=0;exitX=0.01;exitY=0.606;exitDx=0;exitDy=0;exitPerimeter=0;entryPerimeter=0;" edge="1" parent="FoCJxKPPaLEnD5Z_WkkF-43" source="FoCJxKPPaLEnD5Z_WkkF-44" target="FoCJxKPPaLEnD5Z_WkkF-44">
          <mxGeometry width="50" height="50" relative="1" as="geometry">
            <mxPoint x="150" y="200" as="sourcePoint" />
            <mxPoint x="200" y="150" as="targetPoint" />
          </mxGeometry>
        </mxCell>
        <mxCell id="FoCJxKPPaLEnD5Z_WkkF-46" value="" style="group" vertex="1" connectable="0" parent="1">
          <mxGeometry x="10" y="610" width="120" height="80" as="geometry" />
        </mxCell>
        <mxCell id="FoCJxKPPaLEnD5Z_WkkF-47" value="Látogató" style="ellipse;whiteSpace=wrap;html=1;" vertex="1" parent="FoCJxKPPaLEnD5Z_WkkF-46">
          <mxGeometry width="120" height="80" as="geometry" />
        </mxCell>
        <mxCell id="FoCJxKPPaLEnD5Z_WkkF-48" value="" style="endArrow=none;html=1;rounded=0;entryX=0.445;entryY=0.004;entryDx=0;entryDy=0;exitX=0.01;exitY=0.606;exitDx=0;exitDy=0;exitPerimeter=0;entryPerimeter=0;" edge="1" parent="FoCJxKPPaLEnD5Z_WkkF-46" source="FoCJxKPPaLEnD5Z_WkkF-47" target="FoCJxKPPaLEnD5Z_WkkF-47">
          <mxGeometry width="50" height="50" relative="1" as="geometry">
            <mxPoint x="150" y="200" as="sourcePoint" />
            <mxPoint x="200" y="150" as="targetPoint" />
          </mxGeometry>
        </mxCell>
        <mxCell id="FoCJxKPPaLEnD5Z_WkkF-49" style="edgeStyle=orthogonalEdgeStyle;rounded=0;orthogonalLoop=1;jettySize=auto;html=1;entryX=0;entryY=0.25;entryDx=0;entryDy=0;" edge="1" parent="1" source="FoCJxKPPaLEnD5Z_WkkF-2" target="FoCJxKPPaLEnD5Z_WkkF-8">
          <mxGeometry relative="1" as="geometry" />
        </mxCell>
        <mxCell id="FoCJxKPPaLEnD5Z_WkkF-74" value="Megfigyelések listázása" style="edgeLabel;html=1;align=center;verticalAlign=middle;resizable=0;points=[];" vertex="1" connectable="0" parent="FoCJxKPPaLEnD5Z_WkkF-49">
          <mxGeometry x="-0.387" relative="1" as="geometry">
            <mxPoint x="11" y="20" as="offset" />
          </mxGeometry>
        </mxCell>
        <mxCell id="FoCJxKPPaLEnD5Z_WkkF-50" style="edgeStyle=orthogonalEdgeStyle;rounded=0;orthogonalLoop=1;jettySize=auto;html=1;entryX=0;entryY=0.5;entryDx=0;entryDy=0;" edge="1" parent="1" source="FoCJxKPPaLEnD5Z_WkkF-5" target="FoCJxKPPaLEnD5Z_WkkF-8">
          <mxGeometry relative="1" as="geometry" />
        </mxCell>
        <mxCell id="FoCJxKPPaLEnD5Z_WkkF-75" value="Megfigyelések listázása" style="edgeLabel;html=1;align=center;verticalAlign=middle;resizable=0;points=[];" vertex="1" connectable="0" parent="FoCJxKPPaLEnD5Z_WkkF-50">
          <mxGeometry x="-0.3854" relative="1" as="geometry">
            <mxPoint x="8" y="-20" as="offset" />
          </mxGeometry>
        </mxCell>
        <mxCell id="FoCJxKPPaLEnD5Z_WkkF-51" style="edgeStyle=orthogonalEdgeStyle;rounded=0;orthogonalLoop=1;jettySize=auto;html=1;exitX=0.25;exitY=1;exitDx=0;exitDy=0;entryX=1;entryY=1;entryDx=0;entryDy=0;" edge="1" parent="1" source="FoCJxKPPaLEnD5Z_WkkF-8" target="FoCJxKPPaLEnD5Z_WkkF-5">
          <mxGeometry relative="1" as="geometry" />
        </mxCell>
        <mxCell id="FoCJxKPPaLEnD5Z_WkkF-76" value="Megfigyelések listája, megfigyelés adata" style="edgeLabel;html=1;align=center;verticalAlign=middle;resizable=0;points=[];" vertex="1" connectable="0" parent="FoCJxKPPaLEnD5Z_WkkF-51">
          <mxGeometry x="0.0304" y="1" relative="1" as="geometry">
            <mxPoint x="-42" y="11" as="offset" />
          </mxGeometry>
        </mxCell>
        <mxCell id="FoCJxKPPaLEnD5Z_WkkF-52" style="edgeStyle=orthogonalEdgeStyle;rounded=0;orthogonalLoop=1;jettySize=auto;html=1;" edge="1" parent="1" source="FoCJxKPPaLEnD5Z_WkkF-10" target="FoCJxKPPaLEnD5Z_WkkF-2">
          <mxGeometry relative="1" as="geometry">
            <Array as="points">
              <mxPoint x="360" y="-110" />
            </Array>
          </mxGeometry>
        </mxCell>
        <mxCell id="FoCJxKPPaLEnD5Z_WkkF-78" value="Megfigyelések listája, megfigyelés adata" style="edgeLabel;html=1;align=center;verticalAlign=middle;resizable=0;points=[];" vertex="1" connectable="0" parent="FoCJxKPPaLEnD5Z_WkkF-52">
          <mxGeometry x="0.0152" y="1" relative="1" as="geometry">
            <mxPoint x="-38" y="-11" as="offset" />
          </mxGeometry>
        </mxCell>
        <mxCell id="FoCJxKPPaLEnD5Z_WkkF-53" style="edgeStyle=orthogonalEdgeStyle;rounded=0;orthogonalLoop=1;jettySize=auto;html=1;entryX=0;entryY=0.25;entryDx=0;entryDy=0;" edge="1" parent="1" source="FoCJxKPPaLEnD5Z_WkkF-32" target="FoCJxKPPaLEnD5Z_WkkF-14">
          <mxGeometry relative="1" as="geometry" />
        </mxCell>
        <mxCell id="FoCJxKPPaLEnD5Z_WkkF-79" value="Neve, időpontja, leírása" style="edgeLabel;html=1;align=center;verticalAlign=middle;resizable=0;points=[];" vertex="1" connectable="0" parent="FoCJxKPPaLEnD5Z_WkkF-53">
          <mxGeometry x="-0.4645" y="1" relative="1" as="geometry">
            <mxPoint x="14" y="11" as="offset" />
          </mxGeometry>
        </mxCell>
        <mxCell id="FoCJxKPPaLEnD5Z_WkkF-54" style="edgeStyle=orthogonalEdgeStyle;rounded=0;orthogonalLoop=1;jettySize=auto;html=1;entryX=0;entryY=0.5;entryDx=0;entryDy=0;" edge="1" parent="1" source="FoCJxKPPaLEnD5Z_WkkF-35" target="FoCJxKPPaLEnD5Z_WkkF-14">
          <mxGeometry relative="1" as="geometry" />
        </mxCell>
        <mxCell id="FoCJxKPPaLEnD5Z_WkkF-55" style="edgeStyle=orthogonalEdgeStyle;rounded=0;orthogonalLoop=1;jettySize=auto;html=1;exitX=0.25;exitY=1;exitDx=0;exitDy=0;" edge="1" parent="1" source="FoCJxKPPaLEnD5Z_WkkF-14" target="FoCJxKPPaLEnD5Z_WkkF-35">
          <mxGeometry relative="1" as="geometry">
            <mxPoint x="172" y="248" as="targetPoint" />
            <Array as="points">
              <mxPoint x="350" y="250" />
            </Array>
          </mxGeometry>
        </mxCell>
        <mxCell id="FoCJxKPPaLEnD5Z_WkkF-81" value="Hibaüzenet" style="edgeLabel;html=1;align=center;verticalAlign=middle;resizable=0;points=[];" vertex="1" connectable="0" parent="FoCJxKPPaLEnD5Z_WkkF-55">
          <mxGeometry x="0.0392" relative="1" as="geometry">
            <mxPoint x="4" y="10" as="offset" />
          </mxGeometry>
        </mxCell>
        <mxCell id="FoCJxKPPaLEnD5Z_WkkF-56" style="edgeStyle=orthogonalEdgeStyle;rounded=0;orthogonalLoop=1;jettySize=auto;html=1;entryX=1;entryY=0;entryDx=0;entryDy=0;" edge="1" parent="1" source="FoCJxKPPaLEnD5Z_WkkF-16" target="FoCJxKPPaLEnD5Z_WkkF-32">
          <mxGeometry relative="1" as="geometry">
            <Array as="points">
              <mxPoint x="360" y="102" />
            </Array>
          </mxGeometry>
        </mxCell>
        <mxCell id="FoCJxKPPaLEnD5Z_WkkF-83" value="Hibaüzenet" style="edgeLabel;html=1;align=center;verticalAlign=middle;resizable=0;points=[];" vertex="1" connectable="0" parent="FoCJxKPPaLEnD5Z_WkkF-56">
          <mxGeometry x="0.1733" y="-1" relative="1" as="geometry">
            <mxPoint x="13" y="-11" as="offset" />
          </mxGeometry>
        </mxCell>
        <mxCell id="FoCJxKPPaLEnD5Z_WkkF-57" style="edgeStyle=orthogonalEdgeStyle;rounded=0;orthogonalLoop=1;jettySize=auto;html=1;entryX=0;entryY=0.25;entryDx=0;entryDy=0;" edge="1" parent="1" source="FoCJxKPPaLEnD5Z_WkkF-38" target="FoCJxKPPaLEnD5Z_WkkF-20">
          <mxGeometry relative="1" as="geometry" />
        </mxCell>
        <mxCell id="FoCJxKPPaLEnD5Z_WkkF-84" value="Új neve, időpontja, leírása" style="edgeLabel;html=1;align=center;verticalAlign=middle;resizable=0;points=[];" vertex="1" connectable="0" parent="FoCJxKPPaLEnD5Z_WkkF-57">
          <mxGeometry x="-0.5475" y="1" relative="1" as="geometry">
            <mxPoint x="22" y="21" as="offset" />
          </mxGeometry>
        </mxCell>
        <mxCell id="FoCJxKPPaLEnD5Z_WkkF-58" style="edgeStyle=orthogonalEdgeStyle;rounded=0;orthogonalLoop=1;jettySize=auto;html=1;" edge="1" parent="1" source="FoCJxKPPaLEnD5Z_WkkF-41" target="FoCJxKPPaLEnD5Z_WkkF-20">
          <mxGeometry relative="1" as="geometry" />
        </mxCell>
        <mxCell id="FoCJxKPPaLEnD5Z_WkkF-85" value="Új neve, időpontja, leírása" style="edgeLabel;html=1;align=center;verticalAlign=middle;resizable=0;points=[];" vertex="1" connectable="0" parent="FoCJxKPPaLEnD5Z_WkkF-58">
          <mxGeometry x="-0.2192" relative="1" as="geometry">
            <mxPoint y="-10" as="offset" />
          </mxGeometry>
        </mxCell>
        <mxCell id="FoCJxKPPaLEnD5Z_WkkF-60" style="edgeStyle=orthogonalEdgeStyle;rounded=0;orthogonalLoop=1;jettySize=auto;html=1;exitX=0.25;exitY=1;exitDx=0;exitDy=0;entryX=0.826;entryY=0.876;entryDx=0;entryDy=0;entryPerimeter=0;" edge="1" parent="1" source="FoCJxKPPaLEnD5Z_WkkF-20" target="FoCJxKPPaLEnD5Z_WkkF-41">
          <mxGeometry relative="1" as="geometry" />
        </mxCell>
        <mxCell id="FoCJxKPPaLEnD5Z_WkkF-86" value="Hibaüzenet" style="edgeLabel;html=1;align=center;verticalAlign=middle;resizable=0;points=[];" vertex="1" connectable="0" parent="FoCJxKPPaLEnD5Z_WkkF-60">
          <mxGeometry x="-0.0079" y="1" relative="1" as="geometry">
            <mxPoint y="9" as="offset" />
          </mxGeometry>
        </mxCell>
        <mxCell id="FoCJxKPPaLEnD5Z_WkkF-61" style="edgeStyle=orthogonalEdgeStyle;rounded=0;orthogonalLoop=1;jettySize=auto;html=1;exitX=0.25;exitY=0;exitDx=0;exitDy=0;entryX=0.816;entryY=0.112;entryDx=0;entryDy=0;entryPerimeter=0;" edge="1" parent="1" source="FoCJxKPPaLEnD5Z_WkkF-22" target="FoCJxKPPaLEnD5Z_WkkF-38">
          <mxGeometry relative="1" as="geometry" />
        </mxCell>
        <mxCell id="FoCJxKPPaLEnD5Z_WkkF-88" value="Hibaüzenet" style="edgeLabel;html=1;align=center;verticalAlign=middle;resizable=0;points=[];" vertex="1" connectable="0" parent="FoCJxKPPaLEnD5Z_WkkF-61">
          <mxGeometry x="0.0707" y="-2" relative="1" as="geometry">
            <mxPoint y="-7" as="offset" />
          </mxGeometry>
        </mxCell>
        <mxCell id="FoCJxKPPaLEnD5Z_WkkF-62" style="edgeStyle=orthogonalEdgeStyle;rounded=0;orthogonalLoop=1;jettySize=auto;html=1;entryX=0;entryY=0.25;entryDx=0;entryDy=0;" edge="1" parent="1" source="FoCJxKPPaLEnD5Z_WkkF-44" target="FoCJxKPPaLEnD5Z_WkkF-26">
          <mxGeometry relative="1" as="geometry" />
        </mxCell>
        <mxCell id="FoCJxKPPaLEnD5Z_WkkF-93" value="Megfigyelés törlése" style="edgeLabel;html=1;align=center;verticalAlign=middle;resizable=0;points=[];" vertex="1" connectable="0" parent="FoCJxKPPaLEnD5Z_WkkF-62">
          <mxGeometry x="-0.0375" y="1" relative="1" as="geometry">
            <mxPoint as="offset" />
          </mxGeometry>
        </mxCell>
        <mxCell id="FoCJxKPPaLEnD5Z_WkkF-63" style="edgeStyle=orthogonalEdgeStyle;rounded=0;orthogonalLoop=1;jettySize=auto;html=1;entryX=0;entryY=0.5;entryDx=0;entryDy=0;" edge="1" parent="1" source="FoCJxKPPaLEnD5Z_WkkF-47" target="FoCJxKPPaLEnD5Z_WkkF-26">
          <mxGeometry relative="1" as="geometry" />
        </mxCell>
        <mxCell id="FoCJxKPPaLEnD5Z_WkkF-92" value="Megfigyelés törlése" style="edgeLabel;html=1;align=center;verticalAlign=middle;resizable=0;points=[];" vertex="1" connectable="0" parent="FoCJxKPPaLEnD5Z_WkkF-63">
          <mxGeometry x="0.0026" y="1" relative="1" as="geometry">
            <mxPoint as="offset" />
          </mxGeometry>
        </mxCell>
        <mxCell id="FoCJxKPPaLEnD5Z_WkkF-64" style="edgeStyle=orthogonalEdgeStyle;rounded=0;orthogonalLoop=1;jettySize=auto;html=1;exitX=0.25;exitY=1;exitDx=0;exitDy=0;entryX=1;entryY=1;entryDx=0;entryDy=0;" edge="1" parent="1" source="FoCJxKPPaLEnD5Z_WkkF-26" target="FoCJxKPPaLEnD5Z_WkkF-47">
          <mxGeometry relative="1" as="geometry" />
        </mxCell>
        <mxCell id="FoCJxKPPaLEnD5Z_WkkF-90" value="Hibaüzenet" style="edgeLabel;html=1;align=center;verticalAlign=middle;resizable=0;points=[];" vertex="1" connectable="0" parent="FoCJxKPPaLEnD5Z_WkkF-64">
          <mxGeometry x="0.2534" y="-1" relative="1" as="geometry">
            <mxPoint x="10" y="13" as="offset" />
          </mxGeometry>
        </mxCell>
        <mxCell id="FoCJxKPPaLEnD5Z_WkkF-65" style="edgeStyle=orthogonalEdgeStyle;rounded=0;orthogonalLoop=1;jettySize=auto;html=1;exitX=0.25;exitY=0;exitDx=0;exitDy=0;entryX=1;entryY=0;entryDx=0;entryDy=0;" edge="1" parent="1" source="FoCJxKPPaLEnD5Z_WkkF-28" target="FoCJxKPPaLEnD5Z_WkkF-44">
          <mxGeometry relative="1" as="geometry">
            <Array as="points">
              <mxPoint x="372" y="532" />
              <mxPoint x="270" y="532" />
            </Array>
          </mxGeometry>
        </mxCell>
        <mxCell id="FoCJxKPPaLEnD5Z_WkkF-89" value="Hibaüzenet" style="edgeLabel;html=1;align=center;verticalAlign=middle;resizable=0;points=[];" vertex="1" connectable="0" parent="FoCJxKPPaLEnD5Z_WkkF-65">
          <mxGeometry x="0.3107" y="-2" relative="1" as="geometry">
            <mxPoint x="16" y="-10" as="offset" />
          </mxGeometry>
        </mxCell>
        <mxCell id="FoCJxKPPaLEnD5Z_WkkF-80" value="Neve, időpontja, leírása" style="edgeLabel;html=1;align=center;verticalAlign=middle;resizable=0;points=[];" vertex="1" connectable="0" parent="1">
          <mxGeometry x="199.60000000000002" y="150" as="geometry">
            <mxPoint x="-9" y="60" as="offset" />
          </mxGeometry>
        </mxCell>
        <mxCell id="FoCJxKPPaLEnD5Z_WkkF-94" value="" style="group" vertex="1" connectable="0" parent="1">
          <mxGeometry x="480" y="470" width="180" height="30" as="geometry" />
        </mxCell>
        <mxCell id="FoCJxKPPaLEnD5Z_WkkF-95" value="" style="html=1;dashed=0;whiteSpace=wrap;shape=mxgraph.dfd.dataStoreID;align=left;spacingLeft=3;points=[[0,0],[0.5,0],[1,0],[0,0.5],[1,0.5],[0,1],[0.5,1],[1,1]];" vertex="1" parent="FoCJxKPPaLEnD5Z_WkkF-94">
          <mxGeometry width="180" height="30" as="geometry" />
        </mxCell>
        <mxCell id="FoCJxKPPaLEnD5Z_WkkF-96" value="Megfigyelések" style="text;html=1;align=center;verticalAlign=middle;whiteSpace=wrap;rounded=0;" vertex="1" parent="FoCJxKPPaLEnD5Z_WkkF-94">
          <mxGeometry x="30" width="100" height="30" as="geometry" />
        </mxCell>
        <mxCell id="FoCJxKPPaLEnD5Z_WkkF-97" value="L3" style="text;html=1;align=center;verticalAlign=middle;whiteSpace=wrap;rounded=0;" vertex="1" parent="FoCJxKPPaLEnD5Z_WkkF-94">
          <mxGeometry width="30" height="30" as="geometry" />
        </mxCell>
        <mxCell id="FoCJxKPPaLEnD5Z_WkkF-98" value="" style="endArrow=none;html=1;rounded=0;entryX=0.25;entryY=0;entryDx=0;entryDy=0;exitX=0.25;exitY=1;exitDx=0;exitDy=0;" edge="1" parent="FoCJxKPPaLEnD5Z_WkkF-94" source="FoCJxKPPaLEnD5Z_WkkF-97" target="FoCJxKPPaLEnD5Z_WkkF-97">
          <mxGeometry width="50" height="50" relative="1" as="geometry">
            <mxPoint x="30" y="50" as="sourcePoint" />
            <mxPoint x="80" as="targetPoint" />
          </mxGeometry>
        </mxCell>
        <mxCell id="FoCJxKPPaLEnD5Z_WkkF-99" value="" style="group" vertex="1" connectable="0" parent="1">
          <mxGeometry x="480" y="50" width="180" height="30" as="geometry" />
        </mxCell>
        <mxCell id="FoCJxKPPaLEnD5Z_WkkF-100" value="" style="html=1;dashed=0;whiteSpace=wrap;shape=mxgraph.dfd.dataStoreID;align=left;spacingLeft=3;points=[[0,0],[0.5,0],[1,0],[0,0.5],[1,0.5],[0,1],[0.5,1],[1,1]];" vertex="1" parent="FoCJxKPPaLEnD5Z_WkkF-99">
          <mxGeometry width="180" height="30" as="geometry" />
        </mxCell>
        <mxCell id="FoCJxKPPaLEnD5Z_WkkF-101" value="Megfigyelések" style="text;html=1;align=center;verticalAlign=middle;whiteSpace=wrap;rounded=0;" vertex="1" parent="FoCJxKPPaLEnD5Z_WkkF-99">
          <mxGeometry x="30" width="100" height="30" as="geometry" />
        </mxCell>
        <mxCell id="FoCJxKPPaLEnD5Z_WkkF-102" value="L3" style="text;html=1;align=center;verticalAlign=middle;whiteSpace=wrap;rounded=0;" vertex="1" parent="FoCJxKPPaLEnD5Z_WkkF-99">
          <mxGeometry width="30" height="30" as="geometry" />
        </mxCell>
        <mxCell id="FoCJxKPPaLEnD5Z_WkkF-103" value="" style="endArrow=none;html=1;rounded=0;entryX=0.25;entryY=0;entryDx=0;entryDy=0;exitX=0.25;exitY=1;exitDx=0;exitDy=0;" edge="1" parent="FoCJxKPPaLEnD5Z_WkkF-99" source="FoCJxKPPaLEnD5Z_WkkF-102" target="FoCJxKPPaLEnD5Z_WkkF-102">
          <mxGeometry width="50" height="50" relative="1" as="geometry">
            <mxPoint x="30" y="50" as="sourcePoint" />
            <mxPoint x="80" as="targetPoint" />
          </mxGeometry>
        </mxCell>
        <mxCell id="FoCJxKPPaLEnD5Z_WkkF-104" style="edgeStyle=orthogonalEdgeStyle;rounded=0;orthogonalLoop=1;jettySize=auto;html=1;entryX=1;entryY=0.5;entryDx=0;entryDy=0;startArrow=classic;startFill=1;endArrow=none;endFill=0;" edge="1" parent="1" source="FoCJxKPPaLEnD5Z_WkkF-101" target="FoCJxKPPaLEnD5Z_WkkF-14">
          <mxGeometry relative="1" as="geometry">
            <Array as="points">
              <mxPoint x="540" y="190" />
            </Array>
          </mxGeometry>
        </mxCell>
        <mxCell id="FoCJxKPPaLEnD5Z_WkkF-105" style="edgeStyle=orthogonalEdgeStyle;rounded=0;orthogonalLoop=1;jettySize=auto;html=1;" edge="1" parent="1" source="FoCJxKPPaLEnD5Z_WkkF-101" target="FoCJxKPPaLEnD5Z_WkkF-8">
          <mxGeometry relative="1" as="geometry">
            <Array as="points">
              <mxPoint x="540" y="-30" />
            </Array>
          </mxGeometry>
        </mxCell>
        <mxCell id="FoCJxKPPaLEnD5Z_WkkF-106" style="edgeStyle=orthogonalEdgeStyle;rounded=0;orthogonalLoop=1;jettySize=auto;html=1;startArrow=classic;startFill=1;endArrow=none;endFill=0;" edge="1" parent="1" source="FoCJxKPPaLEnD5Z_WkkF-96" target="FoCJxKPPaLEnD5Z_WkkF-20">
          <mxGeometry relative="1" as="geometry">
            <Array as="points">
              <mxPoint x="550" y="390" />
            </Array>
          </mxGeometry>
        </mxCell>
        <mxCell id="FoCJxKPPaLEnD5Z_WkkF-107" style="edgeStyle=orthogonalEdgeStyle;rounded=0;orthogonalLoop=1;jettySize=auto;html=1;endArrow=none;endFill=0;startArrow=classic;startFill=1;" edge="1" parent="1" source="FoCJxKPPaLEnD5Z_WkkF-96" target="FoCJxKPPaLEnD5Z_WkkF-26">
          <mxGeometry relative="1" as="geometry">
            <Array as="points">
              <mxPoint x="550" y="600" />
            </Array>
          </mxGeometry>
        </mxCell>
        <mxCell id="FoCJxKPPaLEnD5Z_WkkF-112" value="4" style="text;html=1;align=center;verticalAlign=middle;whiteSpace=wrap;rounded=0;" vertex="1" parent="1">
          <mxGeometry x="300" y="-160" width="30" height="30" as="geometry" />
        </mxCell>
      </root>
    </mxGraphModel>
  </diagram>
</mxfile>
